<svg xmlns="http://www.w3.org/2000/svg" viewBox="0 0 1600 1000" role="img" aria-labelledby="title description">
  <title id="title">Abstract visualization of AI hurricane damage assessment</title>
  <desc id="description">A cyan hurricane formation merges into a neural-network field on a dark technical grid.</desc>
  <defs>
    <linearGradient id="background" x1="0" x2="1" y1="0" y2="1">
      <stop stop-color="#06151d" />
      <stop offset="0.55" stop-color="#0d2b39" />
      <stop offset="1" stop-color="#070c13" />
    </linearGradient>
    <radialGradient id="storm">
      <stop stop-color="#d1fbff" stop-opacity="0.95" />
      <stop offset="0.12" stop-color="#75efff" stop-opacity="0.75" />
      <stop offset="0.48" stop-color="#0ca8c5" stop-opacity="0.35" />
      <stop offset="1" stop-color="#0ca8c5" stop-opacity="0" />
    </radialGradient>
    <pattern id="grid" width="80" height="80" patternUnits="userSpaceOnUse">
      <path d="M 80 0 H 0 V 80" fill="none" stroke="#75efff" stroke-opacity="0.13" stroke-width="1" />
    </pattern>
  </defs>
  <rect width="1600" height="1000" fill="url(#background)" />
  <rect width="1600" height="1000" fill="url(#grid)" />
  <g opacity="0.36" fill="none" stroke="#75efff">
    <path d="M116 170 C420 10 705 136 736 386 C762 605 507 794 248 694 C74 627 45 429 194 334 C333 244 516 325 480 472 C449 599 264 585 236 474" stroke-width="4" />
    <path d="M69 121 C447 -73 866 106 892 434 C916 753 560 958 211 809 C-100 677 -34 311 259 218 C518 136 687 385 588 581 C497 760 211 684 183 505" stroke-width="2" />
    <path d="M214 51 C668 -80 1034 197 1006 565 C976 942 569 1067 189 892" stroke-width="2" />
  </g>
  <circle cx="405" cy="478" r="235" fill="url(#storm)" />
  <circle cx="405" cy="478" r="22" fill="#071318" stroke="#d1fbff" stroke-width="3" />
  <g stroke="#75efff" stroke-opacity="0.55" stroke-width="2" fill="#75efff">
    <path d="M800 252 L975 192 L1128 294 L1288 183 L1483 301" fill="none" />
    <path d="M803 510 L975 407 L1135 527 L1296 398 L1492 508" fill="none" />
    <path d="M803 751 L978 670 L1134 781 L1297 665 L1490 777" fill="none" />
    <path d="M975 192 L975 407 M1128 294 L1135 527 M1288 183 L1296 398 M1483 301 L1492 508 M975 407 L978 670 M1135 527 L1134 781 M1296 398 L1297 665 M1492 508 L1490 777" fill="none" />
    <g>
      <circle cx="800" cy="252" r="8" /><circle cx="975" cy="192" r="8" /><circle cx="1128" cy="294" r="8" /><circle cx="1288" cy="183" r="8" /><circle cx="1483" cy="301" r="8" />
      <circle cx="803" cy="510" r="8" /><circle cx="975" cy="407" r="8" /><circle cx="1135" cy="527" r="8" /><circle cx="1296" cy="398" r="8" /><circle cx="1492" cy="508" r="8" />
      <circle cx="803" cy="751" r="8" /><circle cx="978" cy="670" r="8" /><circle cx="1134" cy="781" r="8" /><circle cx="1297" cy="665" r="8" /><circle cx="1490" cy="777" r="8" />
    </g>
  </g>
</svg>
